<svg width="751" height="751" viewBox="0 0 751 751" fill="none" xmlns="http://www.w3.org/2000/svg">
<circle cx="375.5" cy="375.5" r="375.5" fill="white"/>
<path d="M406.447 509.964C518.866 509.964 610 421.996 610 313.482C610 204.968 518.866 117 406.447 117C294.028 117 202.895 204.968 202.895 313.482C202.895 421.996 294.028 509.964 406.447 509.964Z" fill="#F2F2F2"/>
<path d="M539.466 204.866H166.586C166.207 204.858 165.847 204.708 165.582 204.447C165.317 204.185 165.168 203.834 165.168 203.469C165.168 203.103 165.317 202.752 165.582 202.491C165.847 202.23 166.207 202.079 166.586 202.071H539.466C539.845 202.079 540.205 202.23 540.47 202.491C540.735 202.752 540.883 203.103 540.883 203.469C540.883 203.834 540.735 204.185 540.47 204.447C540.205 204.708 539.845 204.858 539.466 204.866Z" fill="#CACACA"/>
<path d="M191.368 194.936C196.054 194.936 199.853 191.187 199.853 186.563C199.853 181.939 196.054 178.191 191.368 178.191C186.682 178.191 182.883 181.939 182.883 186.563C182.883 191.187 186.682 194.936 191.368 194.936Z" fill="#3F3D56"/>
<path d="M220.679 194.936C225.365 194.936 229.163 191.187 229.163 186.563C229.163 181.939 225.365 178.191 220.679 178.191C215.993 178.191 212.194 181.939 212.194 186.563C212.194 191.187 215.993 194.936 220.679 194.936Z" fill="#3F3D56"/>
<path d="M249.99 194.936C254.676 194.936 258.474 191.187 258.474 186.563C258.474 181.939 254.676 178.191 249.99 178.191C245.304 178.191 241.505 181.939 241.505 186.563C241.505 191.187 245.304 194.936 249.99 194.936Z" fill="#3F3D56"/>
<path d="M521.818 180.266H500.997C500.585 180.274 500.192 180.438 499.903 180.722C499.614 181.007 499.452 181.389 499.452 181.788C499.452 182.186 499.614 182.569 499.903 182.853C500.192 183.138 500.585 183.302 500.997 183.31H521.818C522.231 183.302 522.624 183.138 522.913 182.853C523.202 182.569 523.364 182.186 523.364 181.788C523.364 181.389 523.202 181.007 522.913 180.722C522.624 180.438 522.231 180.274 521.818 180.266Z" fill="#3F3D56"/>
<path d="M521.818 185.979H500.997C500.585 185.986 500.192 186.15 499.903 186.435C499.614 186.719 499.452 187.102 499.452 187.5C499.452 187.899 499.614 188.281 499.903 188.566C500.192 188.85 500.585 189.014 500.997 189.022H521.818C522.231 189.014 522.624 188.85 522.913 188.566C523.202 188.281 523.364 187.899 523.364 187.5C523.364 187.102 523.202 186.719 522.913 186.435C522.624 186.15 522.231 185.986 521.818 185.979Z" fill="#3F3D56"/>
<path d="M521.818 191.683H500.997C500.585 191.691 500.192 191.855 499.903 192.139C499.614 192.424 499.452 192.806 499.452 193.205C499.452 193.603 499.614 193.986 499.903 194.27C500.192 194.555 500.585 194.719 500.997 194.727H521.818C522.231 194.719 522.624 194.555 522.913 194.27C523.202 193.986 523.364 193.603 523.364 193.205C523.364 192.806 523.202 192.424 522.913 192.139C522.624 191.855 522.231 191.691 521.818 191.683Z" fill="#3F3D56"/>
<path d="M412.389 251.963H309.31C301.568 251.963 295.292 258.022 295.292 265.495V265.495C295.292 272.969 301.568 279.027 309.31 279.027H412.389C420.131 279.027 426.408 272.969 426.408 265.495C426.408 258.022 420.131 251.963 412.389 251.963Z" fill="white"/>
<path d="M478.979 306.091H242.721C234.979 306.091 228.702 312.149 228.702 319.623V319.623C228.702 327.096 234.979 333.155 242.721 333.155H478.979C486.721 333.155 492.997 327.096 492.997 319.623C492.997 312.149 486.721 306.091 478.979 306.091Z" fill="white"/>
<path d="M478.979 360.218H242.721C234.979 360.218 228.702 366.277 228.702 373.75V373.75C228.702 381.224 234.979 387.282 242.721 387.282H478.979C486.721 387.282 492.997 381.224 492.997 373.75C492.997 366.277 486.721 360.218 478.979 360.218Z" fill="white"/>
<path d="M213.443 625.81L212.887 625.758C203.566 624.829 194.567 621.953 186.514 617.329C178.461 612.704 171.548 606.442 166.255 598.979C163.321 594.769 160.948 590.22 159.191 585.438L159.022 584.982L159.522 584.943C165.49 584.479 171.621 583.502 174.344 583.037L156.782 577.293L156.674 576.79C156.165 574.482 156.384 572.08 157.302 569.893C158.22 567.706 159.795 565.835 161.825 564.52C163.861 563.142 166.277 562.384 168.763 562.344C171.249 562.303 173.69 562.982 175.773 564.292C177.685 565.471 179.685 566.639 181.619 567.768C188.265 571.649 195.137 575.661 200.29 581.152C204.148 585.345 206.986 590.317 208.599 595.704C210.211 601.092 210.557 606.759 209.61 612.291L213.443 625.81Z" fill="#F2F2F2"/>
<path d="M277.281 617.379L285.936 617.379L290.054 585.151L277.279 585.152L277.281 617.379Z" fill="#A0616A"/>
<path d="M276.976 626.095L303.593 626.094V625.769C303.593 623.117 302.502 620.574 300.559 618.698C298.616 616.823 295.981 615.769 293.233 615.769H293.232L288.37 612.208L279.299 615.77L276.975 615.77L276.976 626.095Z" fill="#2F2E41"/>
<path d="M207.914 594.238L214.837 599.251L238.168 575.858L227.948 568.458L207.914 594.238Z" fill="#A0616A"/>
<path d="M202.25 601.033L223.543 616.451L223.745 616.192C225.393 614.07 226.102 611.403 225.713 608.777C225.325 606.152 223.873 603.783 221.675 602.191L221.674 602.19L219.999 596.526L210.528 594.119L208.67 592.773L202.25 601.033Z" fill="#2F2E41"/>
<path d="M236.686 466.144C236.686 466.144 237.164 478.725 237.767 488.815C237.866 490.469 233.849 492.267 233.953 494.067C234.022 495.261 234.777 496.423 234.847 497.668C234.921 498.982 233.879 500.145 233.953 501.504C234.026 502.832 235.215 504.355 235.287 505.715C236.059 520.342 238.857 537.853 236.055 542.748C234.674 545.16 217.074 578.582 217.074 578.582C217.074 578.582 226.88 592.781 229.682 588.048C233.382 581.797 261.902 552.552 261.902 546.967C261.902 541.389 268.501 499.584 268.501 499.584L273.101 524.324L275.211 529.225L274.548 532.103L275.911 535.987L275.985 539.83L277.312 546.967C277.312 546.967 273.32 602.571 275.568 604.119C277.824 605.674 288.744 608.467 290.033 605.674C291.314 602.882 299.658 547.643 299.658 547.643C299.658 547.643 301.003 522.329 302.46 498.8C302.544 497.434 303.538 495.785 303.615 494.439C303.706 492.877 303.076 490.849 303.16 489.334C303.251 487.597 304.05 486.373 304.127 484.71C304.722 471.857 301.38 456.205 300.315 454.664C297.1 450.012 294.207 446.293 294.207 446.293C294.207 446.293 250.904 432.56 239.332 446.515L236.686 466.144Z" fill="#2F2E41"/>
<path d="M279.876 336.769L262.709 333.455L254.698 343.949C239.75 358.136 239.525 370.658 242.193 390.729V418.898L240.262 437.782C240.262 437.782 233.425 451.586 240.477 454.8C247.529 458.014 293.848 457.74 298.27 456.457C302.693 455.174 298.86 453.599 297.698 447.619C295.517 436.388 296.976 441.806 297.126 438.23C299.279 386.933 294.265 365.873 293.756 360.338L285.026 345.054L279.876 336.769Z" fill="#3F3D56"/>
<path d="M370.353 378.128C369.88 378.995 369.215 379.75 368.406 380.341C367.598 380.933 366.664 381.346 365.672 381.551C364.68 381.757 363.654 381.75 362.665 381.531C361.676 381.313 360.748 380.887 359.948 380.285L322.876 403.007L322.983 390.636L358.996 370.463C360.133 369.232 361.698 368.447 363.395 368.256C365.092 368.065 366.802 368.481 368.202 369.426C369.602 370.371 370.594 371.779 370.991 373.383C371.387 374.987 371.16 376.675 370.353 378.128Z" fill="#A0616A"/>
<path d="M266.322 351.095L262.101 350.663C260.184 350.472 258.248 350.762 256.481 351.506C254.715 352.25 253.178 353.423 252.02 354.911C251.118 356.059 250.47 357.373 250.117 358.772L250.114 358.784C249.597 360.844 249.72 363.006 250.47 364.998C251.219 366.991 252.561 368.726 254.328 369.985L268.906 380.36C279.136 393.702 298.362 402.555 320.914 409.747L355.969 388.732L343.57 374.237L319.526 386.675L283.785 359.969L283.765 359.953L270.162 351.494L266.322 351.095Z" fill="#3F3D56"/>
<path d="M274.075 328.632C285.131 328.632 294.094 319.98 294.094 309.308C294.094 298.637 285.131 289.985 274.075 289.985C263.019 289.985 254.057 298.637 254.057 309.308C254.057 319.98 263.019 328.632 274.075 328.632Z" fill="#A0616A"/>
<path d="M274.538 328.636C274.376 328.641 274.215 328.645 274.053 328.649C273.984 328.822 273.909 328.994 273.823 329.162L274.538 328.636Z" fill="#2F2E41"/>
<path d="M280.032 309.845C280.063 310.035 280.111 310.223 280.175 310.405C280.149 310.214 280.101 310.026 280.032 309.845Z" fill="#2F2E41"/>
<path d="M294.349 290.812C293.525 293.282 292.79 290.149 290.079 290.713C286.819 291.39 283.024 291.158 280.354 289.228C278.393 287.84 276.114 286.93 273.711 286.577C271.307 286.223 268.851 286.436 266.551 287.198C261.982 288.758 254.327 289.858 253.137 294.393C252.723 295.969 252.558 297.68 251.555 298.987C250.678 300.129 249.294 300.78 248.137 301.659C244.228 304.628 247.215 313.061 249.065 317.517C250.915 321.974 255.159 325.22 259.824 326.883C264.338 328.491 269.237 328.775 274.053 328.649C274.891 326.552 274.529 324.13 273.838 321.956C273.089 319.603 271.982 317.332 271.669 314.889C271.357 312.446 272.043 309.672 274.165 308.307C276.115 307.052 279.29 307.816 280.032 309.845C279.599 307.309 282.26 304.855 285.004 304.423C287.951 303.96 290.897 304.986 293.835 305.497C296.772 306.009 295.73 294.07 294.349 290.812Z" fill="#2F2E41"/>
<path d="M365.48 377.555C388.106 377.555 406.447 359.851 406.447 338.011C406.447 316.172 388.106 298.467 365.48 298.467C342.855 298.467 324.513 316.172 324.513 338.011C324.513 359.851 342.855 377.555 365.48 377.555Z" fill="#D14A4A"/>
<path d="M376.242 321.535L365.48 331.922L354.719 321.535C353.882 320.728 352.748 320.276 351.566 320.276C350.383 320.277 349.25 320.73 348.414 321.537C347.577 322.344 347.108 323.439 347.107 324.58C347.107 325.721 347.575 326.816 348.411 327.624L359.172 338.011L348.411 348.399C347.574 349.206 347.104 350.302 347.104 351.443C347.104 352.585 347.574 353.681 348.411 354.488C349.247 355.296 350.382 355.749 351.565 355.749C352.748 355.749 353.883 355.296 354.719 354.488L365.48 344.101L376.242 354.488C377.078 355.294 378.213 355.747 379.395 355.747C380.577 355.746 381.711 355.292 382.547 354.485C383.383 353.678 383.853 352.584 383.854 351.443C383.854 350.301 383.385 349.207 382.55 348.399L371.789 338.011L382.55 327.624C383.385 326.816 383.854 325.721 383.854 324.58C383.853 323.439 383.383 322.345 382.547 321.537C381.711 320.73 380.577 320.277 379.395 320.276C378.213 320.276 377.078 320.729 376.242 321.535V321.535Z" fill="white"/>
<path d="M349.337 304.775C349.656 305.704 349.761 306.69 349.643 307.663C349.525 308.635 349.188 309.572 348.655 310.405C348.122 311.238 347.406 311.949 346.558 312.486C345.71 313.023 344.75 313.375 343.745 313.515L335.066 355.068L325.892 346.429L335.743 307.379C335.61 305.735 336.107 304.101 337.139 302.787C338.171 301.473 339.666 300.569 341.342 300.248C343.017 299.928 344.757 300.211 346.23 301.045C347.704 301.879 348.809 303.206 349.337 304.775Z" fill="#A0616A"/>
<path d="M257.106 358.522L253.861 361.163C252.391 362.365 251.267 363.915 250.601 365.66C249.934 367.406 249.747 369.289 250.058 371.125C250.291 372.548 250.825 373.909 251.627 375.124L251.633 375.133C252.815 376.92 254.517 378.331 256.525 379.188C258.534 380.046 260.76 380.312 262.925 379.954L280.772 376.982C297.829 379.094 317.757 371.83 338.747 361.1L347.306 322.135L327.885 320.736L320.538 346.095L275.83 352.501L275.804 352.504L260.062 356.123L257.106 358.522Z" fill="#3F3D56"/>
<path d="M358.731 626.762L140.954 627C140.701 627 140.458 626.903 140.279 626.73C140.101 626.557 140 626.323 140 626.079C140 625.834 140.101 625.6 140.279 625.427C140.458 625.255 140.701 625.158 140.954 625.158L358.731 624.92C358.984 624.92 359.227 625.017 359.406 625.19C359.585 625.362 359.686 625.597 359.686 625.841C359.686 626.085 359.585 626.32 359.406 626.492C359.227 626.665 358.984 626.762 358.731 626.762Z" fill="#CACACA"/>
</svg>
